# xmcd
#
# Track frame offsets:
#  150
#  14776
#  36145
#  53744
#  71973
#  89277
#  107208
#  127185
#  147527
#  168672
#
# Disc length: 2576 seconds
#
# Revision: 0
# Processed by: cddbd v1.5.2PL0 Copyright (c) Steve Scherf et al.
# Submitted via: AltoMP3_Maker 3.0
#
DISCID=9c0a0e0a
DTITLE=Big Joe Fitz - Shoulda Known Better
DYEAR=1900
DGENRE=
TTITLE0=Don't Mess around with Love
TTITLE1=Funny How Time Slips Away
TTITLE2=Members Only
TTITLE3=Feeling Blue
TTITLE4=I Wouldn't Treat a Dog (the Way You Treated Me)
TTITLE5=Nothing Takes the Place of You
TTITLE6=You Better Move on
TTITLE7=Lonesome Town
TTITLE8=Never Make a Move Too Soon
TTITLE9=Today I Started Loving You Again
EXTD=
EXTT0=
EXTT1=
EXTT2=
EXTT3=
EXTT4=
EXTT5=
EXTT6=
EXTT7=
EXTT8=
EXTT9=
PLAYORDER=
